<?xml version="1.0" standalone="no"?>
<!DOCTYPE svg PUBLIC "-//W3C//DTD SVG 20010904//EN"
 "http://www.w3.org/TR/2001/REC-SVG-20010904/DTD/svg10.dtd">
<svg version="1.0" xmlns="http://www.w3.org/2000/svg"
 width="256.000000pt" height="256.000000pt" viewBox="0 0 256.000000 256.000000"
 preserveAspectRatio="xMidYMid meet">
<metadata>
Created by potrace 1.11, written by Peter Selinger 2001-2013
</metadata>
<g transform="translate(0.000000,256.000000) scale(0.100000,-0.100000)"
fill="#000000" stroke="none">
<path d="M1948 2549 c-15 -4 -41 -20 -57 -36 -16 -15 -159 -157 -318 -315
l-289 -288 -150 148 c-197 193 -197 193 -233 198 -34 6 -88 -20 -96 -46 -11
-39 -12 -68 -1 -88 6 -12 83 -94 171 -182 87 -88 156 -162 154 -165 -3 -2
-207 -6 -455 -7 -448 -3 -449 -3 -494 -26 -64 -33 -125 -97 -151 -156 l-23
-51 1 -655 0 -655 26 -50 c33 -65 85 -117 145 -146 l47 -23 1055 0 c1044 0
1055 0 1101 21 65 29 114 76 146 141 l28 57 0 665 -1 665 -29 53 c-32 60 -75
101 -138 134 -41 22 -50 22 -496 25 -250 2 -456 4 -457 6 -2 1 128 136 289
298 353 358 335 337 341 374 11 63 -54 121 -116 104z m-423 -992 c17 -4 45 -9
63 -13 126 -21 222 -115 251 -246 6 -24 13 -56 17 -73 14 -59 13 -585 -1 -670
-36 -221 -113 -300 -330 -340 -74 -14 -650 -20 -860 -10 -293 16 -399 94 -442
328 -16 89 -23 505 -10 630 18 177 75 294 166 341 42 22 136 47 209 56 80 9
894 6 937 -3z m740 -286 c3 -1 9 -1 13 -1 19 0 70 -58 81 -92 41 -125 -81
-235 -203 -184 -37 15 -80 67 -89 106 -13 56 30 148 78 166 51 18 62 20 88 13
15 -4 30 -8 32 -8z m27 -405 c42 -22 78 -83 78 -130 0 -77 -75 -149 -155 -149
-128 0 -196 156 -111 252 47 53 121 64 188 27z"/>
</g>
</svg>
